<?xml version="1.0" encoding="UTF-8"?>
<!DOCTYPE svg PUBLIC "-//W3C//DTD SVG 1.1//EN" "http://www.w3.org/Graphics/SVG/1.1/DTD/svg11.dtd">
<!-- Creator: CorelDRAW X6 -->
<svg xmlns="http://www.w3.org/2000/svg" xml:space="preserve" width="2841px" height="875px" version="1.1" style="shape-rendering:geometricPrecision; text-rendering:geometricPrecision; image-rendering:optimizeQuality; fill-rule:evenodd; clip-rule:evenodd"
viewBox="0 0 284100 87538"
 xmlns:xlink="http://www.w3.org/1999/xlink">
 <defs>
  <style type="text/css">
   <![CDATA[
    .fil1 {fill:black;fill-rule:nonzero}
    .fil0 {fill:#4FC0A9;fill-rule:nonzero}
   ]]>
  </style>
 </defs>
 <g id="Ebene_x0020_1">
  <metadata id="CorelCorpID_0Corel-Layer"/>
  <path class="fil0" d="M13980 22740l-10247 11203c-318,395 -954,792 -1749,792 -873,0 -1984,-873 -1984,-2224 0,-954 159,-1429 1428,-3256l6832 -8659c398,-636 716,-1431 716,-1987 0,-556 -318,-1350 -716,-1986l-6832 -8659c-1269,-1827 -1428,-2302 -1428,-3257 0,-1350 1111,-2224 1984,-2224 795,0 1431,397 1749,796l10247 11200c1033,1191 1191,2303 1191,4130 0,1827 -158,2939 -1191,4131l0 0z"/>
  <path class="fil0" d="M30501 22740l-10246 11203c-318,395 -955,792 -1749,792 -874,0 -1985,-873 -1985,-2224 0,-954 159,-1429 1429,-3256l6831 -8659c398,-636 716,-1431 716,-1987 0,-556 -318,-1350 -716,-1986l-6831 -8659c-1270,-1827 -1429,-2302 -1429,-3257 0,-1350 1111,-2224 1985,-2224 794,0 1431,397 1749,796l10246 11200c1033,1191 1192,2303 1192,4130 0,1827 -159,2939 -1192,4131l0 0z"/>
  <path class="fil1" d="M60671 31546c1641,0 3047,-234 4264,-516 938,-234 1922,188 1922,1735 0,797 -234,1264 -795,1547 -1360,702 -3283,984 -6000,984 -8718,0 -11578,-5766 -11578,-16171 0,-10219 2860,-16639 11578,-16639 2717,0 4780,422 5953,983 561,281 796,751 796,1501 0,1171 -749,2016 -1688,1780 -1405,-328 -2764,-514 -4546,-514 -6233,0 -7406,3702 -7406,12936 0,8670 1125,12374 7500,12374z"/>
  <path class="fil1" d="M82492 12750c-4921,0 -5905,1640 -5905,9468 0,8391 1592,9608 5905,9608 4688,0 5766,-1217 5766,-9608 0,-8015 -1406,-9468 -5766,-9468zm47 -3468c7312,0 10406,4124 10406,12374 0,10827 -4219,13639 -10453,13639 -6280,0 -10593,-2812 -10593,-12421 0,-9702 3235,-13592 10640,-13592l0 0z"/>
  <path class="fil1" d="M119651 33326c0,1407 -1078,1688 -2203,1688 -1080,0 -2297,-281 -2297,-1688l0 -15467c0,-4078 -1547,-5109 -5484,-5109 -1734,0 -3000,188 -3750,470 -891,328 -984,889 -984,1780l0 18326c0,1407 -1079,1688 -2204,1688 -1077,0 -2297,-281 -2297,-1688l0 -20341c0,-1923 517,-2531 2063,-2859 2344,-516 5157,-844 7311,-844 8017,0 9845,2344 9845,7593l0 16451z"/>
  <path class="fil1" d="M134277 28405c0,2578 703,3516 2719,3516l937 0c937,0 1125,609 1125,1313 0,703 -188,1218 -750,1451 -470,236 -1875,518 -3047,518 -4546,0 -5391,-2438 -5391,-6562l0 -14156c0,-937 -92,-1266 -1217,-1266l-2203 0c-1032,0 -1313,-750 -1313,-1781 0,-937 281,-1688 1313,-1688l2156 0c1172,0 1264,-234 1264,-1171l0 -4405c0,-1502 1125,-1735 2205,-1735 1124,0 2202,233 2202,1686l0 4454c0,937 94,1171 1265,1171l2860 0c1031,0 1266,751 1266,1688 0,1031 -235,1781 -1266,1781l-2860 0c-984,0 -1265,187 -1265,1218l0 13968 0 0z"/>
  <path class="fil1" d="M150459 33326c0,1407 -1124,1688 -2251,1688 -1078,0 -2249,-281 -2249,-1688l0 -22122c0,-1453 1171,-1688 2249,-1688 1127,0 2251,235 2251,1688l0 22122zm-2251 -33326c2205,0 2672,611 2672,2580 0,2436 -703,2952 -2672,2952 -2109,0 -2765,-516 -2765,-2671 0,-2250 656,-2861 2765,-2861z"/>
  <path class="fil1" d="M178105 33326c0,1407 -1078,1688 -2202,1688 -1079,0 -2297,-281 -2297,-1688l0 -15467c0,-4078 -1548,-5109 -5484,-5109 -1735,0 -3000,188 -3751,470 -889,328 -984,889 -984,1780l0 18326c0,1407 -1078,1688 -2202,1688 -1078,0 -2297,-281 -2297,-1688l0 -20341c0,-1923 516,-2531 2063,-2859 2342,-516 5155,-844 7311,-844 8017,0 9844,2344 9844,7593l0 16451 -1 0z"/>
  <path class="fil1" d="M190549 26437c0,4078 1594,5390 5483,5390 3469,0 4735,-423 4735,-2250l0 -18326c0,-1407 1125,-1688 2203,-1688 1124,0 2297,281 2297,1688l0 20342c0,1922 -517,2484 -2016,2859 -2343,562 -4734,844 -6891,844 -8483,0 -10264,-2626 -10264,-7875l0 -16170c0,-1407 1078,-1688 2156,-1688 1125,0 2297,281 2297,1688l0 15185 0 1z"/>
  <path class="fil1" d="M223348 12750c-4920,0 -5905,1640 -5905,9468 0,8391 1593,9608 5905,9608 4688,0 5766,-1217 5766,-9608 0,-8015 -1406,-9468 -5766,-9468zm47 -3468c7312,0 10406,4124 10406,12374 0,10827 -4219,13639 -10453,13639 -6280,0 -10593,-2812 -10593,-12421 0,-9702 3235,-13592 10640,-13592l0 0z"/>
  <path class="fil1" d="M245512 26437c0,4078 1595,5390 5485,5390 3467,0 4734,-423 4734,-2250l0 -18326c0,-1407 1124,-1688 2202,-1688 1125,0 2297,281 2297,1688l0 20342c0,1922 -515,2484 -2016,2859 -2343,562 -4734,844 -6889,844 -8485,0 -10265,-2626 -10265,-7875l0 -16170c0,-1407 1077,-1688 2155,-1688 1126,0 2297,281 2297,1688l0 15185 0 1z"/>
  <path class="fil1" d="M275463 9282c2718,0 4405,281 5249,703 703,374 844,891 844,1405 0,1032 -563,1782 -1828,1595 -1265,-142 -2532,-235 -3984,-235 -3047,0 -3984,797 -3984,2672 0,1453 1546,2906 4687,5109 3984,2719 5437,4827 5437,7968 0,5296 -4031,6797 -9187,6797 -2063,0 -3703,-282 -4639,-610 -752,-281 -1080,-844 -1080,-1641 0,-891 563,-1733 1734,-1546 1313,187 2485,327 4125,327 2437,0 4687,-422 4687,-3092 0,-1688 -937,-3188 -4780,-5954 -3891,-2766 -5343,-4639 -5343,-7218 0,-4968 3655,-6280 8062,-6280l0 0z"/>
  <path class="fil1" d="M59862 74038c0,984 188,1220 1313,1220l6983 0c1078,0 1360,936 1360,1874 0,1078 -282,1969 -1360,1969l-8624 0c-2906,0 -4265,-1219 -4265,-3563l0 -26716c0,-1502 1265,-1781 2296,-1781 1219,0 2297,279 2297,1781l0 25216 0 0z"/>
  <path class="fil1" d="M80028 77600c0,1406 -1124,1688 -2250,1688 -1079,0 -2249,-282 -2249,-1688l0 -22122c0,-1454 1170,-1688 2249,-1688 1126,0 2250,234 2250,1688l0 22122zm-2250 -33326c2204,0 2672,610 2672,2579 0,2437 -703,2952 -2672,2952 -2110,0 -2766,-515 -2766,-2671 0,-2250 656,-2860 2766,-2860z"/>
  <path class="fil1" d="M95118 52852c0,938 93,1171 1266,1171l3233 0c1032,0 1266,751 1266,1688 0,1031 -234,1781 -1266,1781l-3233 0c-984,0 -1266,187 -1266,1219l0 18889c0,1406 -1078,1688 -2203,1688 -1079,0 -2297,-282 -2297,-1688l0 -18842c0,-938 -94,-1266 -1219,-1266l-2014 0c-1032,0 -1313,-750 -1313,-1781 0,-936 281,-1688 1313,-1688l1968 0c1171,0 1265,-233 1265,-1170l0 -1641c0,-4172 1218,-6563 5813,-6563 2249,0 3514,235 3983,470 610,280 797,797 797,1499 0,656 -187,1313 -1125,1313l-2342 0c-2063,0 -2626,937 -2626,3468l0 1453z"/>
  <path class="fil1" d="M109621 63117c0,1499 703,1782 2860,1782l5016 0c2202,0 2952,-236 2952,-2251 0,-3984 -1219,-5625 -5015,-5625 -4172,0 -5813,2063 -5813,5485l0 609 0 0zm1735 4874c-1453,47 -1735,564 -1735,1781 0,4360 2250,6329 8015,6329 2016,0 3563,-235 4735,-516 890,-234 1781,188 1781,1359 0,703 -234,1313 -797,1594 -1312,657 -3328,1032 -6141,1032 -8343,0 -11999,-3047 -11999,-11437l0 -3517c0,-8577 4641,-11061 10266,-11061 7359,0 9420,3985 9420,9515 0,4032 -796,4500 -5484,4640l-8061 281 0 0z"/>
  <path class="fil1" d="M142434 76101c1453,0 2203,-94 3376,-282 937,-140 1546,422 1546,1547 0,750 -234,1125 -797,1453 -1124,515 -2954,751 -4640,751 -6374,0 -10499,-2485 -10499,-12937 0,-11531 5249,-13077 10499,-13077 1686,0 3516,140 4640,796 563,328 797,844 797,1500 0,891 -469,1547 -1593,1360 -1126,-141 -2158,-282 -3469,-282 -4688,0 -6186,1687 -6186,9703 0,6702 1359,9468 6327,9468l-1 0z"/>
  <path class="fil1" d="M165007 80226c-1360,3936 -3609,7312 -8719,7312 -2625,0 -3375,-610 -3375,-2157 0,-703 187,-1359 1125,-1359l1827 0c3142,0 4877,-2391 4877,-4688 0,-1593 -1735,-1312 -2486,-3187 -1874,-4686 -6046,-18045 -6046,-20530 0,-937 703,-1781 2249,-1781 1126,0 1923,234 2297,1781 1500,5907 3234,12844 4594,17436 328,1079 703,1174 1078,1174 327,0 750,-95 1078,-1174 1311,-4592 3094,-11529 4501,-17436 375,-1547 1123,-1781 2201,-1781 1547,0 2250,844 2250,1781 0,2485 -5625,19313 -7452,24609l1 0z"/>
  <path class="fil1" d="M188645 76101c1453,0 2203,-94 3375,-282 938,-140 1547,422 1547,1547 0,750 -234,1125 -796,1453 -1126,515 -2954,751 -4641,751 -6375,0 -10500,-2485 -10500,-12937 0,-11531 5250,-13077 10500,-13077 1687,0 3515,140 4641,796 562,328 796,844 796,1500 0,891 -468,1547 -1593,1360 -1126,-141 -2157,-282 -3468,-282 -4688,0 -6188,1687 -6188,9703 0,6702 1359,9468 6327,9468l0 0z"/>
  <path class="fil1" d="M199457 46336c0,-1451 1125,-1687 2203,-1687 1125,0 2297,236 2297,1687l0 26342c0,2580 609,3517 2625,3517l937 0c937,0 1126,608 1126,1312 0,704 -189,1218 -751,1453 -469,234 -1875,515 -3046,515 -4547,0 -5391,-2437 -5391,-6561l0 -26578z"/>
  <path class="fil1" d="M217442 63117c0,1499 704,1782 2860,1782l5016 0c2202,0 2952,-236 2952,-2251 0,-3984 -1219,-5625 -5015,-5625 -4172,0 -5812,2063 -5812,5485l0 609 -1 0zm1735 4874c-1453,47 -1734,564 -1734,1781 0,4360 2250,6329 8014,6329 2016,0 3563,-235 4735,-516 891,-234 1781,188 1781,1359 0,703 -234,1313 -796,1594 -1313,657 -3329,1032 -6141,1032 -8344,0 -12000,-3047 -12000,-11437l0 -3517c0,-8577 4641,-11061 10266,-11061 7359,0 9420,3985 9420,9515 0,4032 -795,4500 -5483,4640l-8062 281 0 0z"/>
  <path class="fil0" d="M266387 67014l-10247 11202c-317,396 -954,793 -1748,793 -874,0 -1985,-874 -1985,-2224 0,-955 159,-1430 1428,-3257l6832 -8658c398,-637 716,-1431 716,-1987 0,-556 -318,-1350 -716,-1986l-6832 -8659c-1269,-1827 -1428,-2302 -1428,-3257 0,-1350 1111,-2224 1985,-2224 794,0 1431,397 1748,796l10247 11199c1033,1192 1192,2304 1192,4131 0,1827 -159,2939 -1192,4131l0 0z"/>
  <path class="fil0" d="M282908 67014l-10247 11202c-317,396 -954,793 -1748,793 -874,0 -1985,-874 -1985,-2224 0,-955 159,-1430 1429,-3257l6831 -8658c398,-637 716,-1431 716,-1987 0,-556 -318,-1350 -716,-1986l-6831 -8659c-1270,-1827 -1429,-2302 -1429,-3257 0,-1350 1111,-2224 1985,-2224 794,0 1431,397 1748,796l10247 11199c1033,1192 1192,2304 1192,4131 0,1827 -159,2939 -1192,4131l0 0z"/>
 </g>
</svg>
