<svg width="409" height="277" viewBox="0 0 409 277" fill="none" xmlns="http://www.w3.org/2000/svg">
<g clip-path="url(#clip0_331_249)">
<path d="M107.899 216.69H59.791V228.716H107.899V216.69Z" fill="#F27765"/>
<path d="M107.899 240.741H59.791V252.767H107.899V240.741Z" fill="#F27765"/>
<path d="M107.899 264.799H59.791V276.825H107.899V264.799Z" fill="#F27765"/>
<path d="M168.041 216.69H156.01V264.798H131.959V216.69H119.933V276.824H168.041V216.69Z" fill="#F27765"/>
<path d="M408.582 216.69H360.474V228.716H408.582V216.69Z" fill="#F27765"/>
<path d="M408.582 240.741H360.474V252.767H408.582V240.741Z" fill="#F27765"/>
<path d="M408.582 264.799H360.474V276.825H408.582V264.799Z" fill="#F27765"/>
<path d="M240.2 276.824H288.309V216.69H240.2V276.824ZM276.283 264.798H252.226V228.716H276.283V264.798Z" fill="#F27765"/>
<path d="M348.441 216.692H300.333V276.825H312.358V264.8H348.441V216.692ZM336.415 252.774H312.358V228.717H336.415V252.774Z" fill="#F27765"/>
<path d="M180.064 216.69V276.824H192.089V264.798H199.137L211.163 276.824H228.172L214.689 263.341C223.94 259.986 230.578 251.139 230.578 240.742C230.578 227.477 219.786 216.685 206.521 216.685H180.064V216.69ZM206.521 252.773H192.089V228.716H206.521C213.154 228.716 218.547 234.109 218.547 240.742C218.547 247.374 213.154 252.767 206.521 252.767V252.773Z" fill="#F27765"/>
<path d="M228.177 204.661V192.635H210.141V156.553H228.177V144.527H180.069V156.553H198.11V192.635H180.069V204.661H228.177Z" fill="#F7E7D5"/>
<path d="M-0.333984 204.661H20.1134C36.6922 204.661 50.1803 191.173 50.1803 174.594C50.1803 158.015 36.6922 144.527 20.1134 144.527H-0.333984V204.661ZM20.1134 192.635H11.6969V156.553H20.1134C30.0596 156.553 38.1546 164.648 38.1546 174.594C38.1546 184.54 30.0596 192.635 20.1134 192.635Z" fill="#F7E7D5"/>
<path d="M168.041 204.661V168.584H131.959V156.553H168.041V144.527H119.933V180.61H156.016V192.635H119.933V204.661H168.041Z" fill="#F7E7D5"/>
<path d="M107.907 168.585H59.7986V180.611H107.907V168.585Z" fill="#F7E7D5"/>
<path d="M264.257 168.584V180.61H276.283V192.635H252.232V156.553H288.314V144.527H240.206V204.661H288.314V168.584H264.257Z" fill="#F7E7D5"/>
<path d="M336.424 144.527V168.584L312.367 144.527H300.341V204.661H312.367V161.537L336.424 185.593V204.661H348.449V144.527H336.424Z" fill="#F7E7D5"/>
<path d="M107.907 192.633H59.7986V204.659H107.907V192.633Z" fill="#F7E7D5"/>
<path d="M107.907 144.526H59.7986V156.552H107.907V144.526Z" fill="#F7E7D5"/>
<path d="M59.8008 60.3365H107.909V0.202637H59.8008V60.3365ZM95.8831 48.3107H71.8265V12.2284H95.8831V48.3107Z" fill="#F7E7D5"/>
<path d="M288.315 60.3365V48.3107H270.274V12.2284H288.315V0.202637H240.207V12.2284H258.248V48.3107H240.207V60.3365H288.315Z" fill="#F7E7D5"/>
<path d="M-0.333984 60.3365H20.1134C36.6922 60.3365 50.1803 46.8484 50.1803 30.2695C50.1803 13.6907 36.6922 0.202637 20.1134 0.202637H-0.333984V60.3365ZM20.1134 48.3107H11.6969V12.2284H20.1134C30.0596 12.2284 38.1546 20.3233 38.1546 30.2695C38.1546 40.2158 30.0596 48.3107 20.1134 48.3107Z" fill="#F7E7D5"/>
<path d="M156.016 0.202637L143.975 12.2439L131.965 0.233751V0.202637H131.934H119.939V60.3365H131.965V17.243L143.975 29.2531L156.016 17.2119V60.3365H168.047V0.202637H156.016Z" fill="#F7E7D5"/>
<path d="M180.073 60.3365H192.098V36.2798H216.155V60.3365H228.181V0.202637H180.073V60.3365ZM216.155 24.2541H192.098V12.2284H216.155V24.2541Z" fill="#F7E7D5"/>
<path d="M336.424 0.202637V24.2593L312.372 0.202637H300.341V60.3365H312.372V17.2119L336.424 41.2633V60.3365H348.449V0.202637H336.424Z" fill="#F7E7D5"/>
<path d="M265.46 132.5L288.313 109.646V72.3662H276.282V104.798L264.257 116.694L252.231 104.787V72.3662H240.205V109.646L263.054 132.5H265.46Z" fill="#F7E7D5"/>
<path d="M119.932 72.367V132.501H131.958V120.475H139.005L151.031 132.501H168.04L154.557 119.018C163.809 115.663 170.446 106.816 170.446 96.4185C170.446 83.1533 159.655 72.3618 146.39 72.3618H119.932V72.367ZM146.39 108.449H131.958V84.3927H146.39C153.022 84.3927 158.415 89.7859 158.415 96.4185C158.415 103.051 153.022 108.444 146.39 108.444V108.449Z" fill="#F7E7D5"/>
<path d="M59.7988 132.502H80.2462C96.825 132.502 110.313 119.013 110.313 102.435C110.313 85.8559 96.825 72.3678 80.2462 72.3678H59.7988V132.502ZM80.2462 120.476H71.8297V84.3935H80.2462C90.1924 84.3935 98.2874 92.4885 98.2874 102.435C98.2874 112.381 90.1924 120.476 80.2462 120.476Z" fill="#F7E7D5"/>
<path d="M228.174 132.501V120.476H210.138V84.3934H228.174V72.3677H180.066V84.3934H198.107V120.476H180.066V132.501H228.174Z" fill="#F7E7D5"/>
<path d="M348.447 72.3677H300.339V84.3934H348.447V72.3677Z" fill="#F7E7D5"/>
<path d="M348.447 96.4182H300.339V108.444H348.447V96.4182Z" fill="#F7E7D5"/>
<path d="M348.447 120.475H300.339V132.5H348.447V120.475Z" fill="#F7E7D5"/>
<path d="M396.556 72.3677V96.4191L372.5 72.3677H360.474V132.501H372.5V89.3769L396.556 113.428V132.501H408.582V72.3677H396.556Z" fill="#F7E7D5"/>
</g>
<defs>
<clipPath id="clip0_331_249">
<rect width="408.92" height="276.62" fill="white"/>
</clipPath>
</defs>
</svg>
