<?xml version="1.0" encoding="utf-8"?>
<!-- Generator: Adobe Illustrator 27.3.1, SVG Export Plug-In . SVG Version: 6.00 Build 0)  -->
<svg version="1.1" id="Layer_1" xmlns="http://www.w3.org/2000/svg" xmlns:xlink="http://www.w3.org/1999/xlink" x="0px" y="0px"
	 viewBox="0 0 658.4 202.8" style="enable-background:new 0 0 658.4 202.8;" xml:space="preserve">
<style type="text/css">
	.st0{fill:#3D3C3B;}
	.st1{fill:#F89522;}
	.st2{fill:#F79422;}
	.st3{fill:none;}
	.st4{enable-background:new    ;}
	.st5{fill:none;stroke:#3D3C3B;stroke-width:2;stroke-miterlimit:10;}
	.st6{fill:none;stroke:#F79422;stroke-width:2;stroke-miterlimit:10;}
</style>
<polygon class="st0" points="90.4,155.5 117.1,137.9 90.4,120.3 63.7,137.9 "/>
<polygon class="st1" points="26.5,120.3 7.6,132.7 7.6,146.3 25,156.5 53.2,137.9 "/>
<polygon class="st0" points="191.3,50 164.9,32.6 164.9,67.8 191.3,85.2 "/>
<polygon class="st0" points="55.7,58.9 29.3,76.3 29.3,111.5 55.7,94.1 "/>
<polygon class="st0" points="117.1,53.6 90.4,36 63.7,53.6 90.4,71.2 "/>
<polygon class="st1" points="125.2,143.2 125.2,173.5 149.6,159.2 "/>
<polygon class="st1" points="171.6,124.6 171.6,108.9 159.7,116.8 "/>
<polygon class="st1" points="155.2,156 171.6,146.3 171.6,131.6 154.4,120.3 127.7,137.9 "/>
<polygon class="st1" points="87.7,30.9 87.7,3.4 34.7,34.4 58.5,50.1 "/>
<polygon class="st1" points="145.5,35 93.2,4.4 93.2,30.9 122.4,50.1 "/>
<polygon class="st1" points="119.6,143.2 93.2,160.6 93.2,192.2 119.6,176.8 "/>
<polygon class="st1" points="55.7,143.2 30.5,159.7 55.7,174.5 "/>
<polygon class="st1" points="61.3,177.8 87.7,193.2 87.7,160.6 61.3,143.2 "/>
<polygon class="st1" points="29.1,37.7 7.6,50.3 7.6,100.9 23.7,111.5 23.7,73 53.2,53.6 "/>
<polygon class="st1" points="7.6,107.9 7.6,125.8 21.2,116.8 "/>
<polygon class="st0" points="87.7,76.3 61.3,58.9 61.3,97.4 31.8,116.8 58.5,134.4 87.7,115.2 "/>
<polygon class="st2" points="131.2,51.8 131.2,89.9 160.1,108.9 181.6,94.8 188.1,90.5 159.2,71.4 159.2,33.3 "/>
<g>
	<g>
		<polygon class="st0" points="366.7,33 353.8,33 353.8,101.5 401.9,101.5 401.9,89.6 366.7,89.6 		"/>
	</g>
	<path class="st3" d="M483.5,45.1h-19.8v24.8h19.8C500.3,69.9,500.2,45.1,483.5,45.1z"/>
	<path class="st0" d="M314.9,91.7c-17.3,0-24-12.1-24.1-23.7c-0.1-11.7,7.2-24.3,24.1-24.3c6.1,0,12.3,2.1,16.9,6.6l8.8-8.5
		c-7.2-7.1-16.2-10.7-25.6-10.7c-25.2,0-37.1,18.6-37,36.8s11.1,36,37,36c10.1,0,19.4-3.3,26.5-10.4l-9-9.1
		C327.9,89.2,321,91.7,314.9,91.7z"/>
	<path class="st0" d="M211.1,102.5h52.3v-13h-39.2V73.8H262V61.5h-37.8V45.3h39.2V32.6h-52.3C211.1,55.9,211.1,79.3,211.1,102.5z"/>
	<path class="st0" d="M596.3,102.5h52.3v-13h-39.2V73.8h37.8V61.5h-37.8V45.3h39.2V32.6h-52.3C596.3,55.9,596.3,79.3,596.3,102.5z"
		/>
	<rect x="418.8" y="32.6" class="st0" width="13.1" height="70"/>
	<path class="st0" d="M551.9,59.8c-8.4-1-15.6-2.7-15.6-8.8c0-5.2,4.7-9.3,14.5-9.3c7.6,0,14.2,3.8,16.6,7.8l10.5-5.4
		c-5.3-10.8-16.6-13.9-27.4-13.9c-12.9,0.1-27,6-27,20.4c0,15.7,13.2,19.5,27.4,21.2c9.3,1,16.2,3.7,16.2,10.3
		c0,7.6-7.8,10.5-16.1,10.5c-8.5,0-16.6-3.4-19.7-11.1l-11,5.7c5.2,12.8,16.2,17.2,30.4,17.2c15.6,0,29.3-6.7,29.3-22.3
		C580.1,65.4,566.5,61.6,551.9,59.8z"/>
	<path class="st0" d="M483.5,32.6c-11-0.1-22,0-32.9,0v70h13.2V82h19.8C517.7,82,517.6,32.6,483.5,32.6z M483.5,69.9h-19.8V45.1
		h19.8C500.2,45.1,500.3,69.9,483.5,69.9z"/>
</g>
<g class="st4">
	<path class="st0" d="M262.4,127v12.1c-5.9-4.9-12-7.4-18.4-7.4c-7,0-12.8,2.5-17.6,7.5c-4.8,5-7.2,11.1-7.2,18.3
		c0,7.1,2.4,13.1,7.2,18c4.8,4.9,10.7,7.3,17.6,7.3c3.6,0,6.7-0.6,9.2-1.8c1.4-0.6,2.9-1.4,4.4-2.4c1.5-1,3.1-2.2,4.8-3.6v12.3
		c-5.9,3.3-12,5-18.4,5c-9.7,0-18-3.4-24.8-10.1c-6.8-6.8-10.2-15-10.2-24.7c0-8.6,2.9-16.3,8.6-23.1c7-8.3,16.1-12.4,27.3-12.4
		C250.8,122,256.7,123.7,262.4,127z"/>
	<path class="st0" d="M271.4,156.9c0-9.5,3.5-17.7,10.5-24.6c7-6.8,15.3-10.3,25.1-10.3c9.7,0,17.9,3.5,24.8,10.4
		c6.9,6.9,10.4,15.2,10.4,24.9c0,9.7-3.5,18-10.4,24.8c-7,6.8-15.4,10.2-25.3,10.2c-8.8,0-16.6-3-23.6-9.1
		C275.3,176.6,271.4,167.8,271.4,156.9z M281.8,157.1c0,7.5,2.5,13.7,7.6,18.5c5,4.8,10.8,7.2,17.3,7.2c7.1,0,13.1-2.5,18-7.4
		c4.9-5,7.3-11,7.3-18.2c0-7.2-2.4-13.3-7.2-18.2c-4.8-4.9-10.7-7.4-17.8-7.4c-7.1,0-13,2.5-17.9,7.4
		C284.2,143.9,281.8,149.9,281.8,157.1z"/>
	<path class="st0" d="M355.2,191.1v-72.4l49.4,51.7v-47.1h10.2v71.9l-49.4-51.6v47.5H355.2z"/>
</g>
<g class="st4">
	<path class="st5" d="M262.4,127v12.1c-5.9-4.9-12-7.4-18.4-7.4c-7,0-12.8,2.5-17.6,7.5c-4.8,5-7.2,11.1-7.2,18.3
		c0,7.1,2.4,13.1,7.2,18c4.8,4.9,10.7,7.3,17.6,7.3c3.6,0,6.7-0.6,9.2-1.8c1.4-0.6,2.9-1.4,4.4-2.4c1.5-1,3.1-2.2,4.8-3.6v12.3
		c-5.9,3.3-12,5-18.4,5c-9.7,0-18-3.4-24.8-10.1c-6.8-6.8-10.2-15-10.2-24.7c0-8.6,2.9-16.3,8.6-23.1c7-8.3,16.1-12.4,27.3-12.4
		C250.8,122,256.7,123.7,262.4,127z"/>
	<path class="st5" d="M271.4,156.9c0-9.5,3.5-17.7,10.5-24.6c7-6.8,15.3-10.3,25.1-10.3c9.7,0,17.9,3.5,24.8,10.4
		c6.9,6.9,10.4,15.2,10.4,24.9c0,9.7-3.5,18-10.4,24.8c-7,6.8-15.4,10.2-25.3,10.2c-8.8,0-16.6-3-23.6-9.1
		C275.3,176.6,271.4,167.8,271.4,156.9z M281.8,157.1c0,7.5,2.5,13.7,7.6,18.5c5,4.8,10.8,7.2,17.3,7.2c7.1,0,13.1-2.5,18-7.4
		c4.9-5,7.3-11,7.3-18.2c0-7.2-2.4-13.3-7.2-18.2c-4.8-4.9-10.7-7.4-17.8-7.4c-7.1,0-13,2.5-17.9,7.4
		C284.2,143.9,281.8,149.9,281.8,157.1z"/>
	<path class="st5" d="M355.2,191.1v-72.4l49.4,51.7v-47.1h10.2v71.9l-49.4-51.6v47.5H355.2z"/>
</g>
<g class="st4">
	<path class="st2" d="M444.8,182h24.1v9.2h-43.5l22.5-27.2c2.2-2.7,4.1-5.1,5.6-7c1.5-2,2.6-3.6,3.4-5c1.6-2.6,2.4-5,2.4-7.1
		c0-3-1.1-5.5-3.2-7.6c-2.1-2-4.7-3.1-7.9-3.1c-6.5,0-10.3,3.9-11.2,11.6h-9.7c1.6-13.6,8.5-20.5,20.7-20.5c5.9,0,10.8,1.9,14.8,5.6
		c4,3.7,6,8.4,6,13.9c0,3.5-0.9,7-2.8,10.4c-1,1.8-2.3,3.8-4.2,6.3c-1.8,2.4-4.1,5.3-6.9,8.6L444.8,182z"/>
	<path class="st2" d="M480.8,158.5c0-9.1,3.3-16.9,10-23.5c6.6-6.5,14.6-9.8,24-9.8c9.2,0,17.1,3.3,23.7,9.9
		c6.6,6.6,9.9,14.5,9.9,23.8c0,9.3-3.3,17.2-10,23.7c-6.7,6.5-14.7,9.8-24.2,9.8c-8.4,0-15.9-2.9-22.5-8.7
		C484.5,177.2,480.8,168.9,480.8,158.5z M490.7,158.6c0,7.2,2.4,13,7.2,17.6c4.8,4.6,10.3,6.9,16.6,6.9c6.8,0,12.5-2.3,17.2-7
		c4.7-4.7,7-10.5,7-17.3c0-6.9-2.3-12.7-6.9-17.3c-4.6-4.7-10.3-7-17-7c-6.7,0-12.4,2.3-17.1,7C493,146.1,490.7,151.8,490.7,158.6z"
		/>
	<path class="st2" d="M574.5,182h24.1v9.2h-43.5l22.5-27.2c2.2-2.7,4.1-5.1,5.6-7c1.5-2,2.6-3.6,3.4-5c1.6-2.6,2.4-5,2.4-7.1
		c0-3-1.1-5.5-3.2-7.6c-2.1-2-4.7-3.1-7.9-3.1c-6.5,0-10.3,3.9-11.2,11.6h-9.7c1.6-13.6,8.5-20.5,20.7-20.5c5.9,0,10.8,1.9,14.8,5.6
		c4,3.7,6,8.4,6,13.9c0,3.5-0.9,7-2.8,10.4c-1,1.8-2.3,3.8-4.2,6.3c-1.8,2.4-4.1,5.3-6.9,8.6L574.5,182z"/>
	<path class="st2" d="M628.2,161.1v-8.3c4.1,0,6.9-0.5,8.3-1.4c2.5-1.6,3.8-4.2,3.8-7.8c0-2.8-0.9-5-2.8-6.7
		c-1.8-1.8-4.2-2.6-7.1-2.6c-2.7,0-4.8,0.7-6.3,2c-1.4,1.3-2.5,3.6-3.2,6.8h-9.7c1-6.1,3.1-10.6,6.2-13.4c3.1-2.8,7.5-4.3,13.1-4.3
		c5.7,0,10.3,1.7,13.9,5c3.6,3.3,5.4,7.6,5.4,12.9c0,5.9-2.3,10.5-7,13.8c5.4,3.2,8,8.3,8,15.4c0,5.8-2,10.6-5.9,14.2
		c-3.9,3.7-8.9,5.5-15,5.5c-7.8,0-13.6-2.9-17.3-8.6c-1.6-2.4-2.6-5.7-3-10h9.4c0.5,3.1,1.7,5.5,3.7,7.2c1.9,1.7,4.5,2.5,7.6,2.5
		c3.2,0,5.8-1,7.8-3.1c2.1-2.2,3.1-4.9,3.1-8.2c0-4.4-1.6-7.5-4.7-9.3C634.8,161.6,632,161.1,628.2,161.1z"/>
</g>
<g class="st4">
	<path class="st6" d="M444.8,182h24.1v9.2h-43.5l22.5-27.2c2.2-2.7,4.1-5.1,5.6-7c1.5-2,2.6-3.6,3.4-5c1.6-2.6,2.4-5,2.4-7.1
		c0-3-1.1-5.5-3.2-7.6c-2.1-2-4.7-3.1-7.9-3.1c-6.5,0-10.3,3.9-11.2,11.6h-9.7c1.6-13.6,8.5-20.5,20.7-20.5c5.9,0,10.8,1.9,14.8,5.6
		c4,3.7,6,8.4,6,13.9c0,3.5-0.9,7-2.8,10.4c-1,1.8-2.3,3.8-4.2,6.3c-1.8,2.4-4.1,5.3-6.9,8.6L444.8,182z"/>
	<path class="st6" d="M480.8,158.5c0-9.1,3.3-16.9,10-23.5c6.6-6.5,14.6-9.8,24-9.8c9.2,0,17.1,3.3,23.7,9.9
		c6.6,6.6,9.9,14.5,9.9,23.8c0,9.3-3.3,17.2-10,23.7c-6.7,6.5-14.7,9.8-24.2,9.8c-8.4,0-15.9-2.9-22.5-8.7
		C484.5,177.2,480.8,168.9,480.8,158.5z M490.7,158.6c0,7.2,2.4,13,7.2,17.6c4.8,4.6,10.3,6.9,16.6,6.9c6.8,0,12.5-2.3,17.2-7
		c4.7-4.7,7-10.5,7-17.3c0-6.9-2.3-12.7-6.9-17.3c-4.6-4.7-10.3-7-17-7c-6.7,0-12.4,2.3-17.1,7C493,146.1,490.7,151.8,490.7,158.6z"
		/>
	<path class="st6" d="M574.5,182h24.1v9.2h-43.5l22.5-27.2c2.2-2.7,4.1-5.1,5.6-7c1.5-2,2.6-3.6,3.4-5c1.6-2.6,2.4-5,2.4-7.1
		c0-3-1.1-5.5-3.2-7.6c-2.1-2-4.7-3.1-7.9-3.1c-6.5,0-10.3,3.9-11.2,11.6h-9.7c1.6-13.6,8.5-20.5,20.7-20.5c5.9,0,10.8,1.9,14.8,5.6
		c4,3.7,6,8.4,6,13.9c0,3.5-0.9,7-2.8,10.4c-1,1.8-2.3,3.8-4.2,6.3c-1.8,2.4-4.1,5.3-6.9,8.6L574.5,182z"/>
	<path class="st6" d="M628.2,161.1v-8.3c4.1,0,6.9-0.5,8.3-1.4c2.5-1.6,3.8-4.2,3.8-7.8c0-2.8-0.9-5-2.8-6.7
		c-1.8-1.8-4.2-2.6-7.1-2.6c-2.7,0-4.8,0.7-6.3,2c-1.4,1.3-2.5,3.6-3.2,6.8h-9.7c1-6.1,3.1-10.6,6.2-13.4c3.1-2.8,7.5-4.3,13.1-4.3
		c5.7,0,10.3,1.7,13.9,5c3.6,3.3,5.4,7.6,5.4,12.9c0,5.9-2.3,10.5-7,13.8c5.4,3.2,8,8.3,8,15.4c0,5.8-2,10.6-5.9,14.2
		c-3.9,3.7-8.9,5.5-15,5.5c-7.8,0-13.6-2.9-17.3-8.6c-1.6-2.4-2.6-5.7-3-10h9.4c0.5,3.1,1.7,5.5,3.7,7.2c1.9,1.7,4.5,2.5,7.6,2.5
		c3.2,0,5.8-1,7.8-3.1c2.1-2.2,3.1-4.9,3.1-8.2c0-4.4-1.6-7.5-4.7-9.3C634.8,161.6,632,161.1,628.2,161.1z"/>
</g>
</svg>
